<?xml version="1.0" encoding="UTF-8" standalone="no"?>
<svg
   xmlns:dc="http://purl.org/dc/elements/1.1/"
   xmlns:cc="http://creativecommons.org/ns#"
   xmlns:rdf="http://www.w3.org/1999/02/22-rdf-syntax-ns#"
   xmlns:svg="http://www.w3.org/2000/svg"
   xmlns="http://www.w3.org/2000/svg"
   xmlns:sodipodi="http://sodipodi.sourceforge.net/DTD/sodipodi-0.dtd"
   xmlns:inkscape="http://www.inkscape.org/namespaces/inkscape"
   viewBox="0 0 48 48"
   id="svg2"
   version="1.1"
   inkscape:version="0.91 r13725"
   sodipodi:docname="spin_0.svg">
  <metadata
     id="metadata61">
    <rdf:RDF>
      <cc:Work
         rdf:about="">
        <dc:format>image/svg+xml</dc:format>
        <dc:type
           rdf:resource="http://purl.org/dc/dcmitype/StillImage" />
        <dc:title></dc:title>
      </cc:Work>
    </rdf:RDF>
  </metadata>
  <sodipodi:namedview
     pagecolor="#ffffff"
     bordercolor="#3861aa"
     borderopacity="1"
     objecttolerance="10"
     gridtolerance="10"
     guidetolerance="10"
     inkscape:pageopacity="0"
     inkscape:pageshadow="2"
     inkscape:window-width="700"
     inkscape:window-height="371"
     id="namedview59"
     showgrid="false"
     inkscape:zoom="3.4766084"
     inkscape:cx="39.185076"
     inkscape:cy="-15.584429"
     inkscape:window-x="409"
     inkscape:window-y="316"
     inkscape:window-maximized="0"
     inkscape:current-layer="svg2" />
  <defs
     id="defs4">
    <linearGradient
       id="linearGradient3764"
       x1="1"
       x2="47"
       gradientUnits="userSpaceOnUse"
       gradientTransform="matrix(0,-1,1,0,-1.5e-6,47.999998)">
      <stop
         stop-color="#3861aa"
         stop-opacity="1"
         id="stop7" />
      <stop
         offset="1"
         stop-color="#3861aa"
         stop-opacity="1"
         id="stop9" />
    </linearGradient>
    <clipPath
       id="clipPath-823937765">
      <g
         transform="translate(0,-1004.3622)"
         id="g12">
        <path
           d="m -24 13 c 0 1.105 -0.672 2 -1.5 2 -0.828 0 -1.5 -0.895 -1.5 -2 0 -1.105 0.672 -2 1.5 -2 0.828 0 1.5 0.895 1.5 2 z"
           transform="matrix(15.333333,0,0,11.5,414.99999,878.8622)"
           fill="#3861aa"
           id="path14" />
      </g>
    </clipPath>
    <clipPath
       id="clipPath-832541835">
      <g
         transform="translate(0,-1004.3622)"
         id="g17">
        <path
           d="m -24 13 c 0 1.105 -0.672 2 -1.5 2 -0.828 0 -1.5 -0.895 -1.5 -2 0 -1.105 0.672 -2 1.5 -2 0.828 0 1.5 0.895 1.5 2 z"
           transform="matrix(15.333333,0,0,11.5,414.99999,878.8622)"
           fill="#3861aa"
           id="path19" />
      </g>
    </clipPath>
  </defs>
  <g
     id="g29"
     style="fill:#3861aa;fill-opacity:1">
    <path
       d="m 24 1 c 12.703 0 23 10.297 23 23 c 0 12.703 -10.297 23 -23 23 -12.703 0 -23 -10.297 -23 -23 0 -12.703 10.297 -23 23 -23 z"
       id="path31"
       style="fill:#3861aa;fill-opacity:1"
       fill-opacity="1"
       fill="url(#linearGradient3764)" />
  </g>
  <g
     id="g33" />
  <path
     inkscape:connector-curvature="0"
     d="m 14.335805,15.055047 c 0.297322,-1.361273 1.052289,-2.582628 1.786851,-3.7486 0.836585,1.130993 1.574061,2.419392 1.83349,3.815643 -0.387685,-0.142831 -0.778286,-0.271089 -1.174716,-0.3906 -0.690838,0.513027 -0.317727,1.504103 -0.384771,2.24158 -0.03206,0.746222 0.781201,0.982331 1.349613,1.171801 2.113323,0.548007 3.809812,2.361093 4.340329,4.465672 0.673349,2.582627 -0.326472,5.573345 -2.617606,7.02498 -0.935693,0.696668 -2.186197,0.757881 -3.09857,1.483698 0.02915,1.603211 0.03789,3.206423 0.01458,4.806719 0.04664,0.440154 -0.131173,0.827839 -0.574242,0.964841 -0.393515,-1.955918 -0.02041,-3.961389 -0.236109,-5.934795 -0.690838,-0.390601 -1.524507,-0.422666 -2.244495,-0.757883 -2.215346,-0.859904 -3.6757257,-3.08691 -3.9672187,-5.395533 -0.215705,-2.941164 1.7751917,-6.033904 4.7163557,-6.715997 0.495538,-0.183641 1.087268,-0.23028 1.483698,-0.600475 0.125343,-0.757882 0.107853,-1.539083 0.02624,-2.29988 -0.291494,-0.440154 -0.8395,-0.122427 -1.25342,-0.131171 z"
     id="path6"
     style="fill:#ffffff" />
  <path
     inkscape:connector-curvature="0"
     d="m 31.549132,17.322273 c 0.197286,-1.633415 -0.188583,-3.31325 0.275621,-4.917654 0.356855,0.223398 0.533833,0.539637 0.533833,0.945815 0.06963,1.282361 -0.05803,2.573426 0.04642,3.855789 0.127657,0.620871 0.902295,0.652785 1.383906,0.876183 1.662429,0.446796 3.008618,1.729157 3.783257,3.234916 1.264954,2.741701 0.519328,6.426315 -2.083112,8.120658 -0.873283,0.713712 -2.083112,0.774638 -2.994111,1.369399 -0.281423,1.227238 -0.07253,2.541513 -0.08704,3.800665 0.513525,-0.145064 1.047358,-0.174076 1.557982,-0.324944 -0.371362,1.343289 -1.044457,2.590838 -1.842307,3.728134 -0.879085,-1.047359 -1.48545,-2.323917 -1.801688,-3.6527 0.423585,-0.0087 0.844269,-0.02032 1.267854,-0.02902 0.01451,-1.177916 0.0029,-2.352931 0.0087,-3.530847 -1.201126,-0.43519 -2.529908,-0.623772 -3.562761,-1.430325 -1.8278,-1.29977 -2.87806,-3.609181 -2.596637,-5.84316 0.171175,-2.489291 1.975766,-4.827714 4.412833,-5.471796 0.574452,-0.211793 1.250447,-0.269819 1.697243,-0.731121 z"
     id="path8"
     style="fill:#ffffff" />
</svg>
